
<svg width="128" height="32" viewBox="0 0 128 32" fill="none" xmlns="http://www.w3.org/2000/svg">
  <path fill-rule="evenodd" clip-rule="evenodd" d="M10.3251 7.43802C15.7704 7.43802 18.2698 10.6853 18.2698 16.7961C18.2698 22.3461 15.6811 26.0362 10.3251 26.0362C8.41867 26.0362 6.7431 25.4762 5.44139 24.5453L5.14769 24.324L5.08818 24.383L5.14157 29.6535C5.14472 29.9644 4.96141 30.2426 4.68354 30.3681L4.55893 30.4123L0.983393 31.3512C0.918014 31.3684 0.850669 31.3771 0.783038 31.3771C0.398629 31.3771 0.0789172 31.1022 0.0126158 30.7398L0 30.6002V8.55204C0 8.17066 0.277 7.85347 0.642286 7.78769L0.783038 7.77518H3.43843C3.73931 7.77518 4.00939 7.94559 4.13987 8.20665L4.18692 8.32386L4.55259 9.50448C5.95109 8.20556 7.73642 7.43802 10.3251 7.43802ZM37.0001 2.13915C37.3846 2.13915 37.7043 2.41397 37.7706 2.77638L37.7832 2.91602V24.9642C37.7832 25.3455 37.5062 25.6627 37.1409 25.7285L37.0001 25.741H34.3448C34.0439 25.741 33.7738 25.5706 33.6433 25.3095L33.5963 25.1923L33.2306 24.0117C31.8321 25.3106 30.0468 26.0782 27.458 26.0782C22.0128 26.0782 19.5133 22.8309 19.5133 16.7201C19.5133 11.1701 22.1021 7.48002 27.458 7.48002C29.3645 7.48002 31.0401 8.04001 32.3418 8.97091L32.6355 9.19223L32.695 9.13319L32.6416 3.86274C32.6385 3.55178 32.8218 3.27365 33.0997 3.14806L33.2243 3.10392L36.7998 2.16501C36.8652 2.14785 36.9325 2.13915 37.0001 2.13915ZM104.769 7.67115C109.889 7.67115 113.184 10.5623 113.184 15.9943L113.175 16.368C113.163 16.6474 113.14 16.9872 113.105 17.3876C113.07 17.7889 112.731 18.097 112.325 18.097H101.003C101.268 20.6961 103.033 21.8351 106.476 21.8351L107.135 21.8319C108.098 21.8186 108.477 21.7525 109.801 21.4377C109.94 21.4046 110.109 21.3471 110.307 21.2651C110.662 21.1184 111.064 21.2501 111.265 21.5594L111.334 21.6899L112.268 23.9707C112.43 24.3682 112.237 24.8213 111.837 24.9828L111.766 25.0075C109.319 25.7312 107.349 26.0755 105.858 26.0404C98.8861 25.8765 95.7656 22.5652 95.7656 16.666C95.7656 11.3216 98.6784 7.67115 104.769 7.67115ZM126.048 7.76195C126.393 7.76195 126.719 7.78416 127.021 7.82166L127.365 7.87695C127.79 7.95815 128.067 8.36544 127.986 8.78672L127.961 8.88261L126.902 12.0735C126.774 12.4601 126.367 12.683 125.969 12.5843L125.723 12.5293C125.686 12.522 125.651 12.5158 125.617 12.5105C125.3 12.4599 124.961 12.4346 124.577 12.4346C121.812 12.4346 120.841 14.2744 120.841 17.3117V24.9747C120.841 25.4038 120.49 25.7516 120.058 25.7516H116.563C116.13 25.7516 115.78 25.4038 115.78 24.9747V9.00608C115.78 8.57703 116.13 8.22921 116.563 8.22921H119.15C119.531 8.22921 119.858 8.50246 119.922 8.87594L120.311 11.1496H120.399C121.635 8.93011 123.636 7.76195 126.048 7.76195ZM72.3405 8.73882L72.4745 8.76192L76.1168 9.7291C76.405 9.80565 76.6165 10.042 76.6649 10.3265L76.6753 10.4511V25.0042C76.6753 25.3712 76.4088 25.6763 76.0574 25.7396L75.922 25.7517H72.2797C71.9099 25.7517 71.6023 25.4873 71.5385 25.1386L71.5263 25.0042V9.48394C71.5263 9.41869 71.5349 9.35372 71.5519 9.29069C71.6356 8.98055 71.9041 8.76841 72.2084 8.73966L72.3405 8.73882ZM68.9906 2C69.0723 2 69.1535 2.01268 69.2312 2.03758C69.597 2.15477 69.8162 2.51376 69.767 2.87884L69.7358 3.01558L68.6754 6.27375C68.5859 6.5487 68.352 6.74769 68.073 6.79893L67.9302 6.81191H59.9025V11.2696H67.3018C67.6935 11.2736 68.0111 11.5517 68.0737 11.9147L68.0848 12.0545L68.0541 14.9879C68.0502 15.3665 67.7738 15.6795 67.4109 15.7444L67.2711 15.7567H59.9025V24.9642C59.9025 25.3455 59.6255 25.6627 59.2602 25.7285L59.1194 25.741H55.5801C55.1957 25.741 54.876 25.4662 54.8097 25.1038L54.7971 24.9642V4.07112C54.7971 2.99456 55.625 2.10984 56.6836 2.00948L56.8846 2H68.9906ZM49.6026 2.10808C50.1241 2.10808 50.6637 2.14386 51.1835 2.20469C51.4328 2.23387 51.7371 2.28232 52.0964 2.35005L52.191 2.37429C52.5424 2.48889 52.7514 2.83538 52.7021 3.18637L52.6713 3.31776L52.1472 4.89954C52.0387 5.22697 51.7185 5.43829 51.3722 5.41119L51.2762 5.40442C51.0569 5.39108 50.8356 5.3849 50.6143 5.3849C48.5508 5.3849 47.7494 6.05097 47.6744 7.10469L47.6685 7.27424V7.83514H51.4083C51.7927 7.83514 52.1124 8.10996 52.1787 8.47236L52.1913 8.61201V10.6598C52.1913 11.0412 51.9143 11.3584 51.5491 11.4242L51.4083 11.4367H47.6685V24.965C47.6685 25.3464 47.3915 25.6636 47.0262 25.7294L46.8855 25.7419H43.3336C42.9492 25.7419 42.6295 25.4671 42.5632 25.1047L42.5506 24.965V11.4367H40.6556C40.2712 11.4367 39.9515 11.1619 39.8852 10.7995L39.8726 10.6598V8.61201C39.8726 8.23063 40.1496 7.91343 40.5149 7.84766L40.6556 7.83514H42.5208V7.27424C42.5208 4.5288 44.6037 2.10808 49.6026 2.10808ZM88.828 4.43934C88.8967 4.43934 88.9652 4.44831 89.0315 4.46604L92.5851 5.41507C92.927 5.50638 93.1646 5.81396 93.1646 6.16524V24.9604C93.1646 25.3895 92.814 25.7373 92.3815 25.7373H88.828C88.3955 25.7373 88.045 25.3895 88.045 24.9604V5.2162C88.045 4.78715 88.3955 4.43934 88.828 4.43934ZM80.5905 4.43934C80.6593 4.43934 80.7277 4.44831 80.7941 4.46604L84.3476 5.41507C84.6895 5.50638 84.9271 5.81396 84.9271 6.16524V24.9604C84.9271 25.3895 84.5765 25.7373 84.144 25.7373H80.5905C80.1581 25.7373 79.8075 25.3895 79.8075 24.9604V5.2162C79.8075 4.78715 80.1581 4.43934 80.5905 4.43934ZM28.946 11.8195C25.9407 11.8195 24.81 13.2661 24.81 16.9266C24.81 20.7053 25.7324 22.1814 28.946 22.1814C30.8429 22.1814 31.9814 21.4549 32.5331 20.756L32.6357 20.6168V13.2956C31.9513 12.4395 30.642 11.8195 28.946 11.8195ZM8.83712 11.3349C6.94021 11.3349 5.80171 12.0613 5.25001 12.7603L5.14744 12.8995V20.2206C5.83182 21.0767 7.14106 21.6967 8.83712 21.6967C11.8424 21.6967 12.9731 20.2502 12.9731 16.5896C12.9731 12.8109 12.0507 11.3349 8.83712 11.3349ZM104.91 11.6721C102.291 11.6721 101.232 12.7527 100.996 15.0306H108.676C108.617 12.7527 107.205 11.6721 104.91 11.6721ZM72.337 2.62398L72.4709 2.64711L76.1099 3.61403C76.3982 3.69062 76.6096 3.92692 76.6579 4.21145L76.6684 4.33602V6.37087C76.6684 6.43616 76.6598 6.50116 76.6428 6.56423C76.5471 6.91867 76.2101 7.14505 75.8541 7.11598L75.7201 7.09286L72.0811 6.12593C71.7929 6.04935 71.5815 5.81304 71.5331 5.52851L71.5227 5.40394V3.3691C71.5227 3.30381 71.5313 3.2388 71.5483 3.17574C71.632 2.8656 71.9005 2.65351 72.2048 2.62481L72.337 2.62398Z" fill="#E8501F"/>
</svg>
